HIERARCHY
ROOT mixamorig:Hips
{
	OFFSET -0.000008 104.274872 1.554316
	CHANNELS 6 Xposition Yposition Zposition Xrotation Yrotation Zrotation
	JOINT mixamorig:Spine
	{
		OFFSET -0.000005 10.181595 0.131519
		CHANNELS 6 Xposition Yposition Zposition Xrotation Yrotation Zrotation
		JOINT mixamorig:Spine1
		{
			OFFSET -0.000000 9.893959 -1.470707
			CHANNELS 6 Xposition Yposition Zposition Xrotation Yrotation Zrotation
			JOINT mixamorig:Spine2
			{
				OFFSET -0.000000 9.220757 -1.370641
				CHANNELS 6 Xposition Yposition Zposition Xrotation Yrotation Zrotation
				JOINT mixamorig:Neck
				{
					OFFSET 0.000001 16.740417 -2.049036
					CHANNELS 6 Xposition Yposition Zposition Xrotation Yrotation Zrotation
					JOINT mixamorig:Head
					{
						OFFSET 0.000000 9.617874 1.685006
						CHANNELS 6 Xposition Yposition Zposition Xrotation Yrotation Zrotation
						JOINT mixamorig:HeadTop_End
						{
							OFFSET 0.000002 22.037354 7.501101
							CHANNELS 6 Xposition Yposition Zposition Xrotation Yrotation Zrotation
							End Site
							{
								OFFSET 0.000168 2310.654297 -282.823242
							}
						}
					}
				}
				JOINT mixamorig:RightShoulder
				{
					OFFSET -4.569970 11.014908 -2.160885
					CHANNELS 6 Xposition Yposition Zposition Xrotation Yrotation Zrotation
					JOINT mixamorig:RightArm
					{
						OFFSET -10.592851 -0.524811 -2.232101
						CHANNELS 6 Xposition Yposition Zposition Xrotation Yrotation Zrotation
						JOINT mixamorig:RightForeArm
						{
							OFFSET -27.841511 0.000031 -0.000004
							CHANNELS 6 Xposition Yposition Zposition Xrotation Yrotation Zrotation
							JOINT mixamorig:RightHand
							{
								OFFSET -28.328831 -0.000015 0.000015
								CHANNELS 6 Xposition Yposition Zposition Xrotation Yrotation Zrotation
								JOINT mixamorig:RightHandThumb1
								{
									OFFSET -2.464806 -1.573990 2.681852
									CHANNELS 6 Xposition Yposition Zposition Xrotation Yrotation Zrotation
									JOINT mixamorig:RightHandThumb2
									{
										OFFSET -3.215179 -1.872803 1.924282
										CHANNELS 6 Xposition Yposition Zposition Xrotation Yrotation Zrotation
										JOINT mixamorig:RightHandThumb3
										{
											OFFSET -2.654831 -1.527969 1.512609
											CHANNELS 6 Xposition Yposition Zposition Xrotation Yrotation Zrotation
											JOINT mixamorig:RightHandThumb4
											{
												OFFSET -2.018814 -1.152008 1.108052
												CHANNELS 6 Xposition Yposition Zposition Xrotation Yrotation Zrotation
												End Site
												{
													OFFSET -188.809540 -114.533607 132.431396
												}
											}
										}
									}
								}
								JOINT mixamorig:RightHandIndex1
								{
									OFFSET -9.108284 -0.517868 2.259835
									CHANNELS 6 Xposition Yposition Zposition Xrotation Yrotation Zrotation
									JOINT mixamorig:RightHandIndex2
									{
										OFFSET -3.699989 0.000000 0.001215
										CHANNELS 6 Xposition Yposition Zposition Xrotation Yrotation Zrotation
										JOINT mixamorig:RightHandIndex3
										{
											OFFSET -2.850006 0.000031 -0.000522
											CHANNELS 6 Xposition Yposition Zposition Xrotation Yrotation Zrotation
											JOINT mixamorig:RightHandIndex4
											{
												OFFSET -2.772186 -0.000015 -0.000020
												CHANNELS 6 Xposition Yposition Zposition Xrotation Yrotation Zrotation
												End Site
												{
													OFFSET -277.218445 0.000000 -0.050231
												}
											}
										}
									}
								}
								JOINT mixamorig:RightHandMiddle1
								{
									OFFSET -9.532516 -0.000031 -0.000023
									CHANNELS 6 Xposition Yposition Zposition Xrotation Yrotation Zrotation
									JOINT mixamorig:RightHandMiddle2
									{
										OFFSET -3.700005 -0.000015 0.003713
										CHANNELS 6 Xposition Yposition Zposition Xrotation Yrotation Zrotation
										JOINT mixamorig:RightHandMiddle3
										{
											OFFSET -2.949974 0.000015 -0.002054
											CHANNELS 6 Xposition Yposition Zposition Xrotation Yrotation Zrotation
											JOINT mixamorig:RightHandMiddle4
											{
												OFFSET -2.946640 0.000000 -0.000156
												CHANNELS 6 Xposition Yposition Zposition Xrotation Yrotation Zrotation
												End Site
												{
													OFFSET -294.664337 0.000000 -0.113670
												}
											}
										}
									}
								}
								JOINT mixamorig:RightHandRing1
								{
									OFFSET -9.103600 -0.043076 -1.865134
									CHANNELS 6 Xposition Yposition Zposition Xrotation Yrotation Zrotation
									JOINT mixamorig:RightHandRing2
									{
										OFFSET -3.379288 0.000000 -0.001055
										CHANNELS 6 Xposition Yposition Zposition Xrotation Yrotation Zrotation
										JOINT mixamorig:RightHandRing3
										{
											OFFSET -2.889687 -0.000015 0.000379
											CHANNELS 6 Xposition Yposition Zposition Xrotation Yrotation Zrotation
											JOINT mixamorig:RightHandRing4
											{
												OFFSET -2.638809 -0.000015 0.000941
												CHANNELS 6 Xposition Yposition Zposition Xrotation Yrotation Zrotation
												End Site
												{
													OFFSET -263.880371 0.000000 0.516020
												}
											}
										}
									}
								}
								JOINT mixamorig:RightHandPinky1
								{
									OFFSET -8.076683 -0.486710 -3.806280
									CHANNELS 6 Xposition Yposition Zposition Xrotation Yrotation Zrotation
									JOINT mixamorig:RightHandPinky2
									{
										OFFSET -3.600014 -0.000015 -0.003747
										CHANNELS 6 Xposition Yposition Zposition Xrotation Yrotation Zrotation
										JOINT mixamorig:RightHandPinky3
										{
											OFFSET -2.099983 0.000000 -0.005739
											CHANNELS 6 Xposition Yposition Zposition Xrotation Yrotation Zrotation
											JOINT mixamorig:RightHandPinky4
											{
												OFFSET -2.115768 -0.000031 -0.003680
												CHANNELS 6 Xposition Yposition Zposition Xrotation Yrotation Zrotation
												End Site
												{
													OFFSET -211.577087 0.000000 -0.350686
												}
											}
										}
									}
								}
							}
						}
					}
				}
				JOINT mixamorig:LeftShoulder
				{
					OFFSET 4.570447 11.014725 -2.160855
					CHANNELS 6 Xposition Yposition Zposition Xrotation Yrotation Zrotation
					JOINT mixamorig:LeftArm
					{
						OFFSET 10.592371 -0.524597 -2.232119
						CHANNELS 6 Xposition Yposition Zposition Xrotation Yrotation Zrotation
						JOINT mixamorig:LeftForeArm
						{
							OFFSET 27.841532 -0.000031 0.000026
							CHANNELS 6 Xposition Yposition Zposition Xrotation Yrotation Zrotation
							JOINT mixamorig:LeftHand
							{
								OFFSET 28.328846 -0.000061 0.000022
								CHANNELS 6 Xposition Yposition Zposition Xrotation Yrotation Zrotation
								JOINT mixamorig:LeftHandThumb1
								{
									OFFSET 2.466141 -1.576172 2.681732
									CHANNELS 6 Xposition Yposition Zposition Xrotation Yrotation Zrotation
									JOINT mixamorig:LeftHandThumb2
									{
										OFFSET 3.217812 -1.872070 1.916482
										CHANNELS 6 Xposition Yposition Zposition Xrotation Yrotation Zrotation
										JOINT mixamorig:LeftHandThumb3
										{
											OFFSET 2.656029 -1.528778 1.514513
											CHANNELS 6 Xposition Yposition Zposition Xrotation Yrotation Zrotation
											JOINT mixamorig:LeftHandThumb4
											{
												OFFSET 2.020889 -1.154053 1.115139
												CHANNELS 6 Xposition Yposition Zposition Xrotation Yrotation Zrotation
												End Site
												{
													OFFSET 190.885437 -115.081749 130.048782
												}
											}
										}
									}
								}
								JOINT mixamorig:LeftHandIndex1
								{
									OFFSET 9.109314 -0.518021 2.259871
									CHANNELS 6 Xposition Yposition Zposition Xrotation Yrotation Zrotation
									JOINT mixamorig:LeftHandIndex2
									{
										OFFSET 3.699989 0.000000 -0.000322
										CHANNELS 6 Xposition Yposition Zposition Xrotation Yrotation Zrotation
										JOINT mixamorig:LeftHandIndex3
										{
											OFFSET 2.850006 0.000000 0.000352
											CHANNELS 6 Xposition Yposition Zposition Xrotation Yrotation Zrotation
											JOINT mixamorig:LeftHandIndex4
											{
												OFFSET 2.774864 -0.000031 -0.000027
												CHANNELS 6 Xposition Yposition Zposition Xrotation Yrotation Zrotation
												End Site
												{
													OFFSET 277.486267 0.000000 -0.009857
												}
											}
										}
									}
								}
								JOINT mixamorig:LeftHandMiddle1
								{
									OFFSET 9.533394 0.000061 0.000044
									CHANNELS 6 Xposition Yposition Zposition Xrotation Yrotation Zrotation
									JOINT mixamorig:LeftHandMiddle2
									{
										OFFSET 3.699989 -0.000015 -0.000231
										CHANNELS 6 Xposition Yposition Zposition Xrotation Yrotation Zrotation
										JOINT mixamorig:LeftHandMiddle3
										{
											OFFSET 2.949997 -0.000015 -0.000059
											CHANNELS 6 Xposition Yposition Zposition Xrotation Yrotation Zrotation
											JOINT mixamorig:LeftHandMiddle4
											{
												OFFSET 2.952896 0.000031 0.000063
												CHANNELS 6 Xposition Yposition Zposition Xrotation Yrotation Zrotation
												End Site
												{
													OFFSET 295.289337 0.000000 0.022810
												}
											}
										}
									}
								}
								JOINT mixamorig:LeftHandRing1
								{
									OFFSET 9.104523 -0.042999 -1.865074
									CHANNELS 6 Xposition Yposition Zposition Xrotation Yrotation Zrotation
									JOINT mixamorig:LeftHandRing2
									{
										OFFSET 3.150009 -0.000031 0.000043
										CHANNELS 6 Xposition Yposition Zposition Xrotation Yrotation Zrotation
										JOINT mixamorig:LeftHandRing3
										{
											OFFSET 2.949982 -0.000015 0.000040
											CHANNELS 6 Xposition Yposition Zposition Xrotation Yrotation Zrotation
											JOINT mixamorig:LeftHandRing4
											{
												OFFSET 2.644348 0.000000 0.000057
												CHANNELS 6 Xposition Yposition Zposition Xrotation Yrotation Zrotation
												End Site
												{
													OFFSET 264.434631 0.000000 0.012105
												}
											}
										}
									}
								}
								JOINT mixamorig:LeftHandPinky1
								{
									OFFSET 8.077789 -0.486847 -3.806259
									CHANNELS 6 Xposition Yposition Zposition Xrotation Yrotation Zrotation
									JOINT mixamorig:LeftHandPinky2
									{
										OFFSET 3.599953 0.000031 0.014727
										CHANNELS 6 Xposition Yposition Zposition Xrotation Yrotation Zrotation
										JOINT mixamorig:LeftHandPinky3
										{
											OFFSET 2.100021 0.000015 0.007705
											CHANNELS 6 Xposition Yposition Zposition Xrotation Yrotation Zrotation
											JOINT mixamorig:LeftHandPinky4
											{
												OFFSET 2.125504 0.000031 0.007517
												CHANNELS 6 Xposition Yposition Zposition Xrotation Yrotation Zrotation
												End Site
												{
													OFFSET 212.550781 0.000000 0.625752
												}
											}
										}
									}
								}
							}
						}
					}
				}
			}
		}
	}
	JOINT mixamorig:RightUpLeg
	{
		OFFSET -8.207787 -6.751648 -1.599560
		CHANNELS 6 Xposition Yposition Zposition Xrotation Yrotation Zrotation
		JOINT mixamorig:RightLeg
		{
			OFFSET -0.000002 -44.370117 0.345942
			CHANNELS 6 Xposition Yposition Zposition Xrotation Yrotation Zrotation
			JOINT mixamorig:RightFoot
			{
				OFFSET 0.000003 -44.423679 -3.043532
				CHANNELS 6 Xposition Yposition Zposition Xrotation Yrotation Zrotation
				JOINT mixamorig:RightToeBase
				{
					OFFSET -0.000002 -8.728671 10.710558
					CHANNELS 6 Xposition Yposition Zposition Xrotation Yrotation Zrotation
					JOINT mixamorig:RightToe_End
					{
						OFFSET -0.000001 -0.000679 9.278119
						CHANNELS 6 Xposition Yposition Zposition Xrotation Yrotation Zrotation
						End Site
						{
							OFFSET 0.000000 -0.067690 927.812134
						}
					}
				}
			}
		}
	}
	JOINT mixamorig:LeftUpLeg
	{
		OFFSET 8.207793 -6.751686 -1.599556
		CHANNELS 6 Xposition Yposition Zposition Xrotation Yrotation Zrotation
		JOINT mixamorig:LeftLeg
		{
			OFFSET -0.000004 -44.370014 0.346954
			CHANNELS 6 Xposition Yposition Zposition Xrotation Yrotation Zrotation
			JOINT mixamorig:LeftFoot
			{
				OFFSET -0.000001 -44.423672 -3.044401
				CHANNELS 6 Xposition Yposition Zposition Xrotation Yrotation Zrotation
				JOINT mixamorig:LeftToeBase
				{
					OFFSET -0.000002 -8.728669 10.710558
					CHANNELS 6 Xposition Yposition Zposition Xrotation Yrotation Zrotation
					JOINT mixamorig:LeftToe_End
					{
						OFFSET -0.000003 -0.000679 9.278133
						CHANNELS 6 Xposition Yposition Zposition Xrotation Yrotation Zrotation
						End Site
						{
							OFFSET 0.000000 -0.068021 927.813477
						}
					}
				}
			}
		}
	}
}
MOTION
Frames: 3
Frame Time: 0.033333
0.000006 104.270477 1.554256 0.000010 0.000003 -0.000113 -0.000005 10.181587 0.131522 0.000001 -0.000003 0.000084 -0.000000 9.893967 -1.470711 0.000001 0.000000 -0.000000 -0.000000 9.220802 -1.370642 0.000000 -0.000000 -0.000000 0.000001 16.740433 -2.049030 0.000000 -0.000000 -0.000000 0.000000 9.617859 1.685014 0.000000 0.000000 0.000000 0.000002 22.037384 7.501101 0.000000 -0.000000 0.000000 -4.569968 11.014880 -2.160881 0.000008 0.000001 -0.000038 -10.592804 -0.524849 -2.231761 73.127352 60.772298 -47.008606 -27.841482 0.000001 0.000588 218.641090 74.542458 -229.471489 -28.328821 0.000005 0.000020 -0.000323 -0.000044 0.000007 -2.464717 -1.574225 2.682056 105.803920 199.184613 156.399570 -3.215161 -1.872975 1.924408 -55.016986 -4.230857 -15.137134 -2.654878 -1.528178 1.512746 -50.071301 3.770222 -13.459533 -2.018842 -1.151979 1.108065 -0.000002 -0.000001 0.000002 -9.108354 -0.518008 2.260024 132.748333 164.785007 -173.302636 -3.700061 -0.000132 0.001401 131.068270 165.319169 -173.296325 -2.850061 -0.000126 -0.000328 130.196793 169.438511 -175.086517 -2.772166 -0.000001 -0.000020 -0.000000 -0.000001 0.000001 -9.532554 -0.000188 0.000135 -47.517968 13.061131 5.803756 -3.700052 -0.000144 0.003902 -48.396852 12.066028 5.413067 -2.950035 -0.000156 -0.001856 129.417455 169.868922 -175.205390 -2.946625 0.000002 -0.000154 -0.000000 0.000000 0.000000 -9.103652 -0.043201 -1.864966 -48.840579 12.281516 5.582016 -3.379303 -0.000170 -0.000873 -51.052713 10.135117 4.855165 -2.889750 -0.000170 0.000598 -56.248565 8.321644 4.471350 -2.638814 -0.000028 0.000942 0.000002 -0.000001 0.000002 -8.076719 -0.486816 -3.806155 -39.734970 15.901765 5.754436 -3.600025 -0.000213 -0.003583 -47.024428 8.275349 3.496752 -2.099990 -0.000178 -0.005599 -51.131739 4.372019 2.005551 -2.115771 -0.000041 -0.003677 0.000001 -0.000000 -0.000002 4.570446 11.014691 -2.160851 -0.000018 0.000010 -0.000021 10.592520 -0.524532 -2.232389 63.730631 -63.812470 42.313920 27.841806 -0.000073 -0.000110 197.306994 -68.787347 205.068616 28.328829 -0.000013 0.000014 0.000020 -0.000089 0.000001 2.466159 -1.576138 2.681873 194.241059 403.843459 101.490867 3.217809 -1.872001 1.916542 35.131669 -214.210988 -104.956170 2.656097 -1.528733 1.514602 213.183140 21.839655 68.227866 2.020883 -1.154083 1.115153 0.000002 0.000002 0.000003 9.109275 -0.518052 2.259941 -186.080390 -29.649178 -202.736830 3.700097 0.000054 -0.000323 -42.847730 -141.021290 -95.863426 2.850109 0.000127 0.000309 -62.371320 -143.736973 236.824925 2.774901 -0.000031 -0.000035 -0.000002 0.000001 -0.000002 9.533548 0.000156 0.000015 -39.027715 -152.677732 -111.135797 3.700090 0.000119 -0.000338 -274.393506 -30.502921 28.340509 2.950033 -0.000027 -0.000060 -162.913658 -147.543178 185.008296 2.952857 -0.000029 0.000065 0.000001 -0.000001 -0.000002 9.104659 -0.042840 -1.865128 -43.834252 -154.847150 -121.979775 3.150017 0.000189 -0.000130 434.626684 -2.895343 2.208151 2.949979 -0.000008 0.000035 346.042327 14.054256 1.728556 2.644323 0.000046 0.000055 0.000004 0.000002 -0.000002 8.077938 -0.486675 -3.806298 -37.019598 -158.701631 -119.657702 3.599928 0.000356 0.014522 114.630040 3.767280 -5.256513 2.099847 0.000153 0.007516 74.763018 42.503939 -33.086574 2.125489 -0.000029 0.007511 0.000001 0.000001 -0.000003 -8.207786 -6.751667 -1.599560 -0.077001 -0.000003 0.000080 -0.000002 -44.370110 0.345938 0.153719 -0.000000 -0.000000 0.000000 -44.423679 -3.043532 -0.076700 0.000000 -0.000002 -0.000006 -8.728667 10.710559 -0.000009 -0.000000 -0.000000 -0.000001 -0.000679 9.278123 0.000000 -0.000000 -0.000000 8.207792 -6.751710 -1.599556 -0.074518 -0.000003 0.000081 -0.000002 -44.370014 0.346960 0.148822 0.000002 0.000000 -0.000001 -44.423664 -3.044403 -0.074314 0.000000 -0.000002 -0.000004 -8.728671 10.710558 0.000007 -0.000000 -0.000000 0.000000 -0.000680 9.278137 -0.000000 0.000000 -0.000001 
0.000006 104.270477 1.554256 0.000010 0.000003 -0.000113 -0.000005 10.181587 0.131522 0.000001 -0.000003 0.000084 -0.000000 9.893967 -1.470711 0.000001 0.000000 -0.000000 -0.000000 9.220802 -1.370642 0.000000 -0.000000 -0.000000 0.000001 16.740433 -2.049030 0.000000 -0.000000 -0.000000 0.000000 9.617859 1.685014 0.000000 0.000000 0.000000 0.000002 22.037384 7.501101 0.000000 -0.000000 0.000000 -4.569968 11.014880 -2.160881 0.000008 0.000001 -0.000038 -10.592793 -0.524848 -2.231761 72.998692 61.619986 -47.620847 -27.841482 -0.000017 0.000591 217.930136 74.127387 -228.929185 -28.328833 0.000005 0.000027 -0.000324 -0.000045 0.000005 -2.464722 -1.574221 2.682058 105.022478 198.745514 156.122920 -3.215152 -1.872975 1.924404 -55.540380 -4.088141 -15.289647 -2.654864 -1.528185 1.512753 -50.396978 3.930268 -13.510721 -2.018822 -1.151989 1.108061 -0.000002 -0.000003 0.000000 -9.108356 -0.518025 2.260012 132.574095 164.390373 -173.081652 -3.700059 -0.000139 0.001412 130.870208 165.028217 -173.012435 -2.850069 -0.000139 -0.000336 129.904515 169.133229 -174.910899 -2.772174 0.000000 -0.000019 -0.000001 -0.000000 -0.000002 -9.532557 -0.000199 0.000154 -47.530385 13.097541 5.830090 -3.700049 -0.000151 0.003910 -48.727451 12.377303 5.845355 -2.950039 -0.000171 -0.001849 129.100848 169.636559 -175.072911 -2.946623 -0.000015 -0.000153 -0.000001 -0.000001 0.000003 -9.103654 -0.043201 -1.864958 -48.695465 12.475037 5.702309 -3.379317 -0.000169 -0.000854 -51.191499 10.482427 5.027148 -2.889748 -0.000150 0.000605 -56.485589 8.480139 4.589346 -2.638819 0.000001 0.000943 0.000002 0.000001 -0.000002 -8.076735 -0.486814 -3.806136 -39.799225 16.165591 5.970581 -3.600026 -0.000211 -0.003582 -47.103672 8.682466 3.671496 -2.100003 -0.000159 -0.005569 -51.486970 4.613987 2.131694 -2.115774 -0.000071 -0.003678 0.000001 -0.000000 -0.000004 4.570446 11.014691 -2.160851 -0.000018 0.000010 -0.000021 10.592515 -0.524544 -2.232393 63.666864 -63.889624 42.323889 27.841812 -0.000046 -0.000108 197.234253 -68.732480 204.989850 28.328835 -0.000028 0.000020 0.000020 -0.000089 -0.000001 2.466175 -1.576119 2.681878 299.177749 369.231366 17.165427 3.217855 -1.871960 1.916524 98.458925 -204.735398 -151.161198 2.656070 -1.528726 1.514620 268.915339 26.504342 34.760697 2.020910 -1.154063 1.115159 0.000003 0.000001 0.000004 9.109207 -0.517729 2.260077 -132.545135 -15.105556 -33.559448 3.699898 0.000299 -0.000110 47.341230 -166.209757 -210.864100 2.849930 0.000333 0.000564 47.885210 -170.320616 158.410009 2.774872 -0.000046 -0.000036 -0.000001 0.000000 -0.000000 9.533324 0.000337 0.000253 47.365798 -166.355227 -210.504395 3.699895 0.000328 -0.000020 -132.824981 -12.448820 -28.046575 2.949950 0.000300 0.000144 -310.636402 -169.518342 157.421134 2.952873 -0.000030 0.000054 -0.000001 0.000000 -0.000000 9.104439 -0.042715 -1.864869 48.640974 -167.268109 -207.735518 3.149930 0.000337 0.000272 590.165828 -10.745946 -22.725253 2.949920 0.000318 0.000299 235.009543 -8.956728 -17.111270 2.644317 0.000061 0.000057 -0.000001 0.000000 0.000000 8.077645 -0.486565 -3.806062 38.852244 -164.137232 -223.724649 3.599866 0.000373 0.014953 227.069721 -8.245566 -19.540667 2.099963 0.000309 0.007940 232.464723 -4.423721 -9.694128 2.125494 -0.000014 0.007508 0.000002 0.000001 0.000001 -8.207786 -6.751667 -1.599560 -0.077001 -0.000003 0.000080 -0.000002 -44.370110 0.345938 0.153719 -0.000000 -0.000000 0.000000 -44.423679 -3.043532 -0.076700 0.000000 -0.000002 -0.000006 -8.728667 10.710559 -0.000009 -0.000000 -0.000000 -0.000001 -0.000679 9.278123 0.000000 -0.000000 -0.000000 8.207792 -6.751710 -1.599556 -0.074518 -0.000003 0.000081 -0.000002 -44.370014 0.346960 0.148822 0.000002 0.000000 -0.000001 -44.423664 -3.044403 -0.074314 0.000000 -0.000002 -0.000004 -8.728671 10.710558 0.000007 -0.000000 -0.000000 0.000000 -0.000680 9.278137 -0.000000 0.000000 -0.000001 
0.000006 104.270477 1.554256 0.000010 0.000003 -0.000113 -0.000005 10.181587 0.131522 0.000001 -0.000003 0.000084 -0.000000 9.893967 -1.470711 0.000001 0.000000 -0.000000 -0.000000 9.220802 -1.370642 0.000000 -0.000000 -0.000000 0.000001 16.740433 -2.049030 0.000000 -0.000000 -0.000000 0.000000 9.617859 1.685014 0.000000 0.000000 0.000000 0.000002 22.037384 7.501101 0.000000 -0.000000 0.000000 -4.569968 11.014880 -2.160881 0.000008 0.000001 -0.000038 -10.592798 -0.524836 -2.231760 73.230638 61.015787 -47.292032 -27.841478 -0.000001 0.000588 217.244548 73.603928 -228.494075 -28.328836 0.000006 0.000026 -0.000321 -0.000044 0.000007 -2.464720 -1.574209 2.682101 103.120625 197.737173 155.488724 -3.215155 -1.872957 1.924415 -56.790513 -3.760407 -15.641949 -2.654858 -1.528184 1.512749 -51.169790 4.319771 -13.632000 -2.018845 -1.151993 1.108065 -0.000002 0.000002 0.000003 -9.108357 -0.517987 2.260035 132.115803 163.465060 -172.553159 -3.700066 -0.000141 0.001404 130.552618 164.242526 -172.391024 -2.850070 -0.000139 -0.000309 129.305330 168.388069 -174.498274 -2.772152 0.000004 -0.000022 0.000001 0.000001 0.000002 -9.532560 -0.000212 0.000150 -47.600667 13.284560 5.938868 -3.700062 -0.000157 0.003907 -49.537108 13.111398 6.796343 -2.950042 -0.000160 -0.001843 128.329378 169.090321 -174.741101 -2.946625 -0.000013 -0.000154 -0.000000 -0.000000 0.000000 -9.103664 -0.043199 -1.864951 -48.640748 12.939538 6.050959 -3.379320 -0.000169 -0.000853 -51.584310 11.292184 5.444790 -2.889755 -0.000173 0.000590 -56.970789 8.868106 4.856860 -2.638814 -0.000028 0.000941 0.000001 -0.000000 0.000002 -8.076735 -0.486814 -3.806129 -39.970957 16.826688 6.460801 -3.600034 -0.000210 -0.003575 -47.372433 9.638552 4.095211 -2.100009 -0.000187 -0.005555 -52.173595 5.192811 2.430511 -2.115771 -0.000040 -0.003681 0.000000 0.000000 -0.000002 4.570446 11.014691 -2.160851 -0.000018 0.000010 -0.000021 10.592522 -0.524536 -2.232391 64.290549 -63.189891 42.264954 27.841810 -0.000070 -0.000115 197.972295 -68.315743 206.238395 28.328838 -0.000013 0.000020 0.000019 -0.000089 0.000000 2.466185 -1.576093 2.681910 298.877139 365.481100 16.901452 3.217856 -1.871956 1.916566 99.009302 -202.763045 -151.953377 2.656072 -1.528725 1.514618 268.482879 25.038729 34.459981 2.020910 -1.154066 1.115159 -0.000000 -0.000002 0.000001 9.109208 -0.517725 2.260089 -131.652128 -16.273720 -35.324068 3.699899 0.000274 -0.000118 49.083952 -164.731909 -212.735927 2.849926 0.000334 0.000575 50.120697 -169.343271 157.441106 2.774879 -0.000015 -0.000039 -0.000004 0.000000 0.000000 9.533301 0.000368 0.000257 48.372762 -165.749225 -211.097269 3.699906 0.000306 -0.000009 -130.551580 -13.194854 -28.196623 2.949931 0.000295 0.000165 -308.335066 -169.047196 157.592845 2.952881 -0.000015 0.000061 0.000002 -0.000000 -0.000000 9.104435 -0.042701 -1.864856 49.058493 -166.465999 -209.152892 3.149930 0.000332 0.000287 591.082768 -11.531361 -23.864176 2.949921 0.000326 0.000271 236.256353 -9.157241 -17.041711 2.644318 0.000046 0.000063 0.000002 0.000000 -0.000000 8.077631 -0.486548 -3.806062 39.156938 -163.746327 -224.345500 3.599871 0.000367 0.014956 229.047211 -8.985469 -20.244404 2.099955 0.000297 0.007964 236.249085 -4.723695 -9.497686 2.125504 -0.000012 0.007509 0.000001 0.000001 -0.000003 -8.207786 -6.751667 -1.599560 -0.077001 -0.000003 0.000080 -0.000002 -44.370110 0.345938 0.153719 -0.000000 -0.000000 0.000000 -44.423679 -3.043532 -0.076700 0.000000 -0.000002 -0.000006 -8.728667 10.710559 -0.000009 -0.000000 -0.000000 -0.000001 -0.000679 9.278123 0.000000 -0.000000 -0.000000 8.207792 -6.751710 -1.599556 -0.074518 -0.000003 0.000081 -0.000002 -44.370014 0.346960 0.148822 0.000002 0.000000 -0.000001 -44.423664 -3.044403 -0.074314 0.000000 -0.000002 -0.000004 -8.728671 10.710558 0.000007 -0.000000 -0.000000 0.000000 -0.000680 9.278137 -0.000000 0.000000 -0.000001 
